# xmcd
#
# Track frame offsets:
# 150
# 15291
# 34613
# 52097
# 68951
# 87448
# 101700
# 120517
# 138812
# 155950
#
# Disc length: 2360 seconds
#
#
# Revision: 0
# Processed by: cddbd v1.5.1PL2 Copyright (c) Steve Scherf et al.
# Submitted via: FreeRIP 2.80 
#
DISCID=8109360a
DTITLE=Chely Wright - Single White Female
DYEAR=1999
DGENRE=Country
TTITLE0=Single White Female
TTITLE1=She Went Out For Cigarettes
TTITLE2=It Was
TTITLE3=Unknown
TTITLE4=The Love That We Lost
TTITLE5=The Fire
TTITLE6=Picket Fences
TTITLE7=Some Kind Of Somethin'
TTITLE8=Rubbin' It In
TTITLE9=Why Do I Still Want You
EXTD=
EXTT0=
EXTT1=
EXTT2=
EXTT3=
EXTT4=
EXTT5=
EXTT6=
EXTT7=
EXTT8=
EXTT9=
PLAYORDER=
